<?xml version="1.0" encoding="utf-8"?>
<!-- Generator: Adobe Illustrator 23.0.2, SVG Export Plug-In . SVG Version: 6.00 Build 0)  -->
<svg version="1.1" id="Layer_1" xmlns="http://www.w3.org/2000/svg" xmlns:xlink="http://www.w3.org/1999/xlink" x="0px" y="0px"
	 viewBox="0 0 156.5 115" style="enable-background:new 0 0 156.5 115;" xml:space="preserve">
<style type="text/css">
	.st0{fill:#F9F9F9;}
</style>
<title>Asset 1</title>
<g>
	<g id="Icon">
		<path class="st0" d="M0,113V95c0-1.1,0.9-2,2-2h68.4c1.1,0,2,0.9,2,2v18c0,1.1-0.9,2-2,2H2C0.9,115,0,114.1,0,113z"/>
		<path class="st0" d="M154.4,0c1.1,0,2,0.9,2,2c0,0.2,0,0.4-0.1,0.5l-29.7,111c-0.2,0.9-1,1.5-1.9,1.5H96.4c-0.9,0-1.7-0.6-1.9-1.5
			L79.5,57.8c-0.1-0.5-0.5-0.8-1-0.8c-0.5,0-0.9,0.3-1,0.8l-4.6,17.3c-0.2,0.9-1,1.5-1.9,1.5H46.5L66.7,1.5c0.2-0.9,1-1.5,1.9-1.5
			h19.9c0.9,0,1.7,0.6,1.9,1.5l20.1,75.2l20.1-75.2c0.2-0.9,1-1.5,1.9-1.5H154.4z"/>
		<path class="st0" d="M46.5,76.6H22.1c-0.9,0-1.7-0.6-1.9-1.5L0.7,2.5C0.5,1.9,0.6,1.3,1,0.8C1.4,0.3,2,0,2.6,0h21.9
			c0.9,0,1.7,0.6,1.9,1.5L46.5,76.6z"/>
	</g>
</g>
</svg>
