<svg xmlns="http://www.w3.org/2000/svg" viewBox="0 0 156.46 115"><defs><style>.cls-1{fill:#acacac;}</style></defs><title>Asset 1</title><g id="Layer_2" data-name="Layer 2"><g id="Icon"><rect class="cls-1" x="25.21" y="67.78" width="22" height="72.43" rx="2" transform="translate(-67.78 140.21) rotate(-90)"/><path class="cls-1" d="M154.45,0a2,2,0,0,1,1.94,2.52l-29.74,111a2,2,0,0,1-1.93,1.48H96.36a2,2,0,0,1-1.94-1.48L79.51,57.84a1,1,0,0,0-1-.75,1,1,0,0,0-1,.75l-4.64,17.3A2,2,0,0,1,71,76.62H46.54L66.67,1.48A2,2,0,0,1,68.61,0H88.47A2,2,0,0,1,90.4,1.48l20.14,75.15L130.67,1.48A2,2,0,0,1,132.61,0Z"/><path class="cls-1" d="M46.53,76.62H22.07a2,2,0,0,1-1.94-1.48L.68,2.52A2,2,0,0,1,1,.78,2,2,0,0,1,2.61,0H24.47A2,2,0,0,1,26.4,1.48Z"/></g></g></svg>