<svg xmlns="http://www.w3.org/2000/svg" width="24" height="24" viewBox="0 0 24 24"><defs><style>.a{fill:rgba(255,255,255,0.5);fill-rule:evenodd;}</style></defs><g transform="translate(-371 -1697)"><path class="a" d="M391.638,1706.5H393.5a1.5,1.5,0,0,1,1.5,1.5v2a1.485,1.485,0,0,1-.439,1.06,1.506,1.506,0,0,1-1.061.44h-1.862a8.872,8.872,0,0,1-.763,1.84l1.317,1.32a1.5,1.5,0,0,1,0,2.12l-1.414,1.41a1.492,1.492,0,0,1-2.121,0l-1.318-1.31a9.358,9.358,0,0,1-1.839.76v1.86a1.5,1.5,0,0,1-1.5,1.5h-2a1.5,1.5,0,0,1-1.5-1.5v-1.86a9.342,9.342,0,0,1-1.84-.76l-1.318,1.31a1.53,1.53,0,0,1-2.122,0l-1.414-1.41a1.5,1.5,0,0,1,0-2.12l1.319-1.32a8.872,8.872,0,0,1-.763-1.84H372.5a1.5,1.5,0,0,1-1.5-1.5v-2a1.5,1.5,0,0,1,1.5-1.5h1.862a8.872,8.872,0,0,1,.763-1.84l-1.318-1.32a1.49,1.49,0,0,1-.44-1.06,1.508,1.508,0,0,1,.44-1.06l1.415-1.41a1.492,1.492,0,0,1,2.121,0l1.318,1.32a8.821,8.821,0,0,1,1.839-.77v-1.86a1.5,1.5,0,0,1,1.5-1.5h2a1.5,1.5,0,0,1,1.5,1.5v1.86a8.792,8.792,0,0,1,1.838.77l1.318-1.32a1.492,1.492,0,0,1,2.121,0l1.415,1.41a1.508,1.508,0,0,1,.44,1.06,1.49,1.49,0,0,1-.44,1.06l-1.317,1.32A8.872,8.872,0,0,1,391.638,1706.5ZM378,1709a5,5,0,1,0,5-5A5,5,0,0,0,378,1709Z"/></g></svg>